<?xml version="1.0" standalone="no"?>
<!DOCTYPE svg PUBLIC "-//W3C//DTD SVG 20010904//EN"
 "http://www.w3.org/TR/2001/REC-SVG-20010904/DTD/svg10.dtd">
<svg version="1.0" xmlns="http://www.w3.org/2000/svg"
 width="246.000000pt" height="246.000000pt" viewBox="0 0 246.000000 246.000000"
 preserveAspectRatio="xMidYMid meet">
<metadata>
Created by potrace 1.14, written by Peter Selinger 2001-2017
</metadata>
<g transform="translate(0.000000,246.000000) scale(0.100000,-0.100000)"
fill="#000000" stroke="none">
<path d="M1109 2415 c-2 -1 -26 -5 -54 -8 -256 -28 -536 -172 -732 -377 -159
-167 -269 -386 -309 -615 -21 -122 -9 -359 25 -485 48 -177 149 -366 260 -483
25 -27 58 -61 72 -76 107 -113 390 -272 529 -297 14 -3 32 -7 40 -10 52 -19
190 -32 310 -29 169 4 232 14 370 57 109 35 332 155 393 211 6 7 29 26 49 44
188 162 323 400 377 668 18 89 22 325 6 400 -62 304 -193 530 -411 711 -175
146 -392 246 -609 279 -46 8 -311 16 -316 10z m297 -80 c434 -65 801 -371 928
-773 73 -233 70 -480 -9 -702 -118 -328 -398 -597 -730 -700 -75 -23 -73 -23
-184 -44 -84 -16 -308 -15 -381 2 -25 6 -58 13 -74 16 -112 20 -314 113 -424
196 -198 148 -329 329 -406 561 -41 125 -50 179 -51 324 0 137 7 196 40 310
154 545 713 896 1291 810z"/>
<path d="M778 2005 c-2 -2 -90 -12 -128 -15 -9 0 -6 -1497 2 -1506 18 -18 222
-38 383 -38 307 0 534 50 712 156 72 42 170 138 215 208 89 139 124 342 91
529 -13 76 -19 97 -56 181 -106 245 -398 415 -806 471 -70 10 -405 21 -413 14z
m357 -159 c22 -3 60 -8 84 -11 23 -3 46 -7 50 -9 3 -2 24 -7 45 -10 58 -9 212
-63 281 -98 213 -108 328 -304 319 -545 -12 -326 -218 -509 -638 -566 -84 -12
-313 -14 -441 -4 l-40 3 -1 620 c0 382 3 621 9 625 11 8 273 4 332 -5z"/>
</g>
</svg>
